<?xml version="1.0" standalone="no"?>
<!DOCTYPE svg PUBLIC "-//W3C//DTD SVG 20010904//EN"
 "http://www.w3.org/TR/2001/REC-SVG-20010904/DTD/svg10.dtd">
<svg version="1.0" xmlns="http://www.w3.org/2000/svg"
 width="768.000000pt" height="768.000000pt" viewBox="0 0 768.000000 768.000000"
 preserveAspectRatio="xMidYMid meet">
<metadata>
Created by potrace 1.14, written by Peter Selinger 2001-2017
</metadata>
<g transform="translate(0.000000,768.000000) scale(0.100000,-0.100000)"
fill="#000000" stroke="none">
<path d="M3685 7514 c-363 -21 -677 -79 -985 -179 -1306 -427 -2261 -1537
-2485 -2889 -38 -230 -48 -360 -48 -606 0 -246 10 -376 48 -606 257 -1549
1470 -2762 3019 -3019 230 -38 360 -48 606 -48 246 0 376 10 606 48 1549 257
2762 1470 3019 3019 38 230 48 360 48 606 0 407 -56 766 -179 1141 -454 1389
-1687 2378 -3139 2518 -115 11 -422 20 -510 15z m521 -89 c707 -74 1343 -337
1909 -789 129 -102 419 -392 521 -521 460 -576 730 -1242 794 -1955 13 -148
13 -492 0 -640 -111 -1238 -856 -2336 -1965 -2895 -375 -189 -737 -299 -1185
-362 -161 -22 -678 -25 -845 -5 -846 104 -1593 470 -2175 1068 -550 565 -883
1254 -997 2064 -25 180 -25 721 0 900 40 275 93 500 173 730 435 1251 1509
2157 2814 2374 85 14 198 30 250 35 163 14 547 12 706 -4z"/>
<path d="M3631 7222 c-26 -26 -92 -108 -147 -182 -176 -234 -314 -458 -453
-735 -64 -128 -76 -158 -77 -205 -1 -49 -17 -86 -132 -322 -108 -219 -138
-272 -168 -295 -157 -122 -248 -197 -322 -268 -85 -80 -89 -83 -182 -110 -568
-165 -716 -214 -750 -250 -26 -27 -27 -65 -10 -289 13 -167 23 -197 102 -304
23 -30 35 -51 28 -47 -9 6 -9 2 1 -16 18 -34 53 -83 62 -87 4 -2 7 -8 7 -13 0
-5 11 -27 25 -49 14 -22 22 -40 19 -40 -3 0 1 -11 9 -24 14 -21 15 -42 6 -173
-7 -88 -8 -208 -4 -298 5 -82 8 -208 7 -280 0 -79 7 -177 18 -250 20 -129 21
-99 -21 -461 -7 -55 -9 -112 -6 -126 9 -35 59 -84 94 -92 92 -23 101 -27 99
-44 -2 -9 0 -19 4 -22 3 -3 22 -27 40 -55 19 -27 42 -59 52 -69 10 -11 18 -23
18 -27 0 -5 8 -16 18 -26 10 -10 39 -45 64 -78 25 -33 59 -74 74 -90 16 -17
61 -66 99 -110 106 -120 326 -334 403 -392 9 -7 46 -36 82 -64 36 -28 103 -76
150 -108 47 -31 87 -59 88 -63 2 -5 10 -8 18 -8 8 0 14 -4 14 -9 0 -5 10 -11
23 -15 12 -3 31 -14 42 -24 11 -10 35 -25 53 -32 17 -8 32 -18 32 -22 0 -5 7
-8 15 -8 8 0 15 -3 15 -7 0 -5 18 -19 40 -33 22 -13 40 -28 40 -32 0 -4 5 -8
11 -8 10 0 80 -55 144 -113 11 -10 46 -37 78 -60 32 -23 72 -54 89 -69 16 -16
34 -28 39 -28 6 0 15 -5 22 -10 47 -39 62 -50 78 -55 11 -4 19 -11 19 -16 0
-5 6 -9 14 -9 8 0 16 -3 18 -7 6 -14 102 -61 156 -77 48 -14 58 -14 100 1 26
8 58 23 72 33 14 9 46 27 72 39 26 12 48 26 50 30 2 4 32 25 67 46 35 22 77
52 93 67 17 16 34 28 38 28 5 0 10 4 12 8 2 4 32 28 68 52 36 25 67 47 70 51
3 3 23 16 45 29 22 13 42 27 45 30 6 8 58 37 83 46 9 3 17 10 17 15 0 5 7 9
15 9 8 0 15 5 15 10 0 6 9 10 20 10 11 0 20 5 20 10 0 6 7 10 15 10 8 0 15 5
15 10 0 6 7 10 16 10 9 0 29 9 45 21 16 11 29 17 29 14 0 -3 13 3 30 15 16 12
39 22 50 23 11 1 21 6 24 12 2 6 22 17 45 25 23 7 41 17 41 21 0 4 12 11 28
17 25 9 91 49 119 72 7 5 16 10 22 10 5 0 11 3 13 8 2 4 39 34 83 66 99 74
111 84 254 227 124 125 143 146 160 177 6 11 17 26 24 34 7 7 24 29 37 48 13
19 33 44 43 55 11 11 30 38 44 59 29 44 37 55 75 97 15 16 24 29 20 29 -4 0 0
6 8 13 17 13 120 189 120 204 0 6 10 23 22 39 13 15 17 25 11 21 -8 -5 -7 1 2
20 7 16 16 59 19 97 4 38 8 72 11 75 4 8 14 83 20 146 1 22 5 56 9 75 5 34 9
59 26 205 4 39 6 230 3 425 -8 511 -7 524 22 614 14 43 45 118 69 167 25 49
52 113 62 142 9 28 29 68 44 87 41 53 50 75 50 120 0 53 -29 83 -99 101 l-54
13 7 87 c4 50 2 97 -3 112 -15 40 -93 69 -517 191 l-261 75 -66 62 c-133 123
-162 149 -172 149 -6 0 -40 28 -76 63 -72 67 -50 26 -274 517 -91 199 -173
354 -200 380 -30 28 -72 29 -123 2 -20 -10 -42 -17 -49 -15 -18 6 -280 295
-428 473 -176 210 -399 463 -436 494 -48 41 -84 35 -138 -22z m160 -99 c40
-49 150 -178 244 -288 235 -275 311 -369 286 -355 -30 16 -38 7 -52 -58 -7
-31 -15 -63 -19 -70 -4 -9 -35 19 -93 85 -47 54 -112 124 -145 157 -69 67 -82
68 -134 5 -18 -21 -38 -39 -45 -39 -7 0 -13 -3 -13 -7 0 -5 -25 -35 -55 -68
-30 -32 -55 -65 -55 -73 0 -7 -4 -11 -8 -8 -5 3 -19 -6 -31 -20 -12 -14 -27
-22 -33 -18 -6 4 -8 3 -5 -3 4 -6 -3 -19 -16 -29 -21 -19 -21 -19 -8 1 26 39
-142 -154 -229 -262 l-25 -32 -134 55 c-100 41 -141 53 -163 49 -36 -8 -36 0
6 83 147 291 324 584 468 776 76 100 167 206 178 206 4 0 41 -39 81 -87z m324
-838 c199 -263 317 -412 363 -463 27 -29 42 -50 33 -48 -56 18 -237 57 -305
67 -105 16 -424 16 -546 0 -87 -11 -176 -27 -273 -50 -50 -12 -47 -5 42 107
209 260 271 344 265 354 -4 7 -3 8 4 4 6 -4 19 6 29 21 26 42 131 163 177 204
l40 37 40 -57 c22 -31 81 -110 131 -176z m415 -29 c41 -47 79 -85 83 -85 4 -1
35 17 68 39 33 23 64 38 69 35 16 -10 92 -166 173 -356 108 -254 108 -256 91
-256 -15 0 -44 57 -146 287 -81 184 -128 280 -137 280 -5 0 -16 -9 -27 -21
-10 -12 -36 -34 -56 -50 l-37 -30 -44 48 c-25 26 -68 76 -97 110 -29 34 -56
60 -60 58 -4 -3 -14 3 -21 12 -10 12 -10 14 -1 9 6 -4 12 -3 12 2 0 11 -45 54
-51 48 -4 -5 -4 37 0 59 2 10 30 -20 181 -189z m-1401 -270 c118 -54 237 -97
245 -89 3 4 6 2 6 -4 0 -5 -9 -18 -20 -28 -20 -18 -19 -18 -95 10 l-20 8 20
-17 c19 -16 19 -16 -7 -5 -16 7 -25 17 -21 23 4 6 -1 5 -10 -3 -9 -7 -14 -18
-10 -25 3 -6 2 -7 -3 -3 -12 12 -12 30 1 39 6 5 3 8 -7 8 -17 0 -23 -12 -18
-35 1 -5 -2 -6 -7 -2 -4 5 -8 14 -8 20 0 5 -6 12 -14 15 -10 3 -12 0 -8 -11 4
-11 2 -14 -9 -10 -7 3 -14 11 -14 18 0 8 -5 17 -12 21 -8 5 -9 2 -5 -10 5 -13
3 -15 -12 -7 -10 6 -22 7 -26 3 -5 -4 -5 -2 -1 5 3 6 2 14 -4 18 -5 3 -10 1
-10 -6 0 -7 -3 -9 -7 -6 -3 4 -12 -1 -20 -11 -9 -10 -12 -11 -7 -2 4 8 4 12 0
8 -4 -3 -38 -69 -75 -145 -62 -126 -103 -183 -132 -183 -10 0 26 86 113 270
73 155 86 180 95 180 3 0 49 -20 102 -44z m1105 -230 c355 -57 731 -220 993
-431 136 -109 377 -360 458 -476 l44 -64 -72 -18 c-42 -10 -73 -13 -75 -8 -2
6 -9 8 -17 5 -8 -4 -30 20 -58 63 -24 37 -60 82 -78 100 l-34 32 3 -137 2
-137 -60 -29 c-68 -33 -283 -159 -317 -186 -12 -9 -19 -20 -16 -24 3 -3 1 -6
-6 -6 -8 0 -11 -7 -7 -15 4 -10 -15 -28 -62 -59 -37 -24 -119 -82 -182 -129
-63 -47 -118 -83 -122 -80 -14 8 -59 -27 -52 -39 5 -7 3 -8 -5 -4 -7 5 -10 14
-7 22 4 11 0 11 -19 -2 -14 -9 -25 -20 -25 -25 0 -5 -6 -9 -14 -9 -22 0 -30
-19 -15 -36 10 -12 9 -13 -6 -8 -13 5 -16 4 -11 -4 4 -7 2 -10 -6 -7 -8 3 -25
-7 -38 -21 -14 -15 -19 -24 -11 -19 10 6 12 4 7 -4 -5 -7 -14 -10 -22 -7 -8 3
-13 2 -11 -3 1 -4 -50 -50 -114 -102 -153 -124 -264 -218 -428 -364 -216 -191
-234 -206 -245 -202 -6 3 -10 10 -8 16 1 7 -2 10 -8 6 -5 -3 -23 2 -39 11
l-29 17 35 73 c46 96 67 219 60 344 -7 110 -24 176 -75 277 -19 40 -34 74 -31
76 2 2 58 43 124 92 153 114 343 303 417 415 143 217 208 423 208 654 0 135
-17 223 -52 268 -14 19 -52 54 -84 78 -33 24 -79 59 -103 77 -24 18 -49 33
-55 33 -11 -1 1 -12 115 -115 30 -27 70 -68 88 -91 30 -39 33 -48 43 -165 29
-333 -96 -646 -364 -917 -89 -90 -285 -244 -332 -262 -25 -9 -32 -7 -68 25
-57 53 -138 101 -225 138 -75 31 -83 32 -218 32 -126 -1 -147 -3 -208 -27
l-68 -26 -12 22 c-17 30 -22 264 -7 355 62 388 338 759 710 954 102 54 130 63
246 82 113 18 428 13 568 -9z m-874 -71 c-162 -87 -394 -296 -489 -440 -157
-240 -231 -509 -219 -798 l5 -118 -44 -37 c-25 -20 -69 -66 -99 -101 -198
-237 -217 -538 -53 -819 50 -84 181 -211 259 -252 l66 -33 -8 -71 c-10 -85 6
-307 32 -461 10 -60 17 -112 14 -114 -2 -2 -4 4 -5 15 0 18 -1 18 -9 -1 -7
-16 -9 -17 -9 -3 -1 9 -5 19 -10 22 -4 3 -7 -5 -6 -17 2 -19 -2 -22 -33 -22
-23 1 -37 6 -40 15 -3 12 -2 13 6 1 6 -8 12 -10 16 -3 4 6 16 9 28 7 11 -3 17
-1 14 3 -4 4 -11 6 -14 5 -4 -1 -14 5 -23 12 -13 13 -17 12 -31 -4 -9 -11 -14
-22 -11 -24 3 -3 -3 -4 -13 -3 -10 2 -20 9 -22 17 -3 11 -2 11 6 1 7 -10 12
-9 23 4 9 11 9 15 2 10 -17 -9 -55 12 -47 26 4 7 3 8 -5 4 -6 -4 -9 -12 -6
-17 4 -5 1 -9 -5 -9 -6 0 -8 -5 -4 -11 4 -8 9 -7 16 2 8 11 9 10 5 -2 -3 -9 0
-23 6 -30 7 -8 0 -3 -15 10 -16 14 -28 21 -28 17 0 -4 -6 -4 -12 1 -7 4 -17 8
-22 8 -5 0 -11 7 -13 15 -3 9 -1 11 4 5 11 -13 33 -17 33 -6 0 5 -8 11 -17 15
-10 3 -24 9 -30 12 -7 3 -13 1 -13 -6 0 -6 5 -8 11 -4 8 4 8 0 0 -15 -14 -25
-23 -28 -14 -4 4 11 3 14 -5 9 -14 -8 -33 33 -24 49 3 6 -2 4 -11 -4 -9 -7
-17 -21 -17 -30 0 -14 -2 -14 -10 -1 -5 9 -5 19 1 26 7 8 6 15 -2 20 -7 4 -9
3 -5 -4 3 -6 2 -13 -4 -17 -5 -3 -10 2 -11 12 0 11 -3 13 -6 5 -3 -7 0 -19 7
-26 8 -10 8 -16 0 -21 -6 -4 -9 -1 -8 7 2 8 -6 13 -19 12 -13 -1 -20 3 -16 12
5 13 -13 14 -32 2 -6 -4 -11 4 -12 20 -2 24 -1 24 7 7 8 -18 9 -17 7 6 0 14
-7 26 -14 26 -6 0 -10 -3 -8 -7 2 -3 0 -12 -6 -20 -7 -13 -9 -12 -10 3 -3 30
-4 35 -10 41 -3 4 -5 -10 -4 -29 4 -59 -9 -34 -17 33 -1 8 -5 9 -11 3 -7 -7
-15 -7 -26 2 -12 9 -13 9 -7 0 4 -8 2 -13 -5 -13 -6 0 -9 8 -6 20 3 11 1 18
-3 15 -5 -3 -11 -1 -15 5 -4 6 -11 8 -16 5 -5 -4 -9 -1 -9 6 0 7 -7 4 -15 -7
-8 -10 -15 -15 -15 -10 0 6 -7 1 -15 -10 -11 -13 -14 -14 -13 -4 2 8 12 20 23
27 11 7 14 12 7 13 -7 0 -10 4 -7 10 4 6 -2 7 -17 1 -13 -5 -22 -16 -22 -25 1
-9 -2 -14 -6 -11 -4 3 -7 16 -7 30 0 15 4 22 11 18 6 -4 5 1 -3 10 -16 21 -17
21 -19 2 -1 -8 -3 -22 -4 -30 -1 -8 -5 -12 -9 -9 -4 2 -6 17 -3 32 3 21 2 24
-6 12 -9 -13 -12 -12 -25 4 -8 11 -15 14 -15 7 0 -7 -4 -10 -10 -6 -28 17 145
-279 237 -404 l17 -23 -40 20 c-54 27 -85 61 -156 167 -112 166 -249 474 -303
678 -50 190 -59 268 -60 512 0 199 3 245 23 342 123 610 456 1098 982 1438
106 69 315 166 470 218 203 68 250 75 150 22z m-1175 -645 c-13 -22 -114 -71
-195 -96 -47 -14 -96 -30 -110 -35 -23 -8 -23 -9 5 -4 25 4 27 3 12 -6 -10 -6
-30 -8 -45 -5 -25 6 -25 5 -7 -6 25 -16 31 -40 8 -31 -12 5 -14 3 -8 -7 6 -10
4 -12 -10 -6 -18 6 -18 6 -2 -11 15 -18 15 -19 -4 -20 -12 -1 -17 3 -13 9 4 7
2 8 -5 4 -9 -6 -9 -11 1 -24 11 -13 10 -15 -5 -9 -13 5 -21 0 -29 -21 -6 -15
-10 -31 -9 -35 1 -5 -3 -6 -9 -2 -8 5 -7 12 2 23 10 14 8 13 -9 -1 -13 -11
-19 -25 -16 -38 4 -13 0 -19 -12 -19 -15 0 -16 -2 -4 -17 8 -10 9 -14 2 -10
-6 4 -14 3 -18 -3 -4 -6 -11 -7 -17 -4 -7 5 -9 1 -5 -9 4 -11 2 -14 -8 -10 -8
3 -12 10 -8 17 4 6 -1 5 -10 -3 -9 -7 -17 -19 -17 -25 0 -6 5 -4 10 4 5 8 10
10 10 4 0 -6 -8 -18 -17 -25 -11 -10 -14 -10 -9 -1 5 8 0 12 -14 12 -12 0 -19
4 -16 8 3 5 -1 9 -9 9 -8 0 -12 -4 -9 -8 2 -4 0 -10 -6 -14 -6 -4 -7 -11 -4
-17 4 -7 2 -8 -5 -4 -6 4 -9 11 -6 16 3 4 -2 11 -11 14 -12 5 -14 9 -5 20 8
10 6 17 -12 32 -22 19 -22 19 -4 -2 16 -20 14 -34 -5 -34 -5 0 -6 6 -2 13 6 9
5 9 -8 0 -13 -11 -15 -9 -16 18 0 17 -4 34 -7 38 -4 3 -5 -56 -3 -131 l4 -138
71 -104 c39 -57 66 -103 60 -102 -7 1 -14 5 -17 10 -3 4 -21 25 -40 45 -19 20
-52 61 -72 91 -37 54 -38 58 -48 190 -5 74 -12 154 -15 178 -4 39 -2 44 28 62
34 22 229 86 527 174 203 60 204 61 195 46z m3616 -51 c158 -44 437 -132 484
-153 28 -12 29 -13 10 -23 -16 -8 -66 5 -245 62 -124 41 -258 83 -297 95 -65
19 -136 59 -107 60 6 0 76 -18 155 -41z m-4004 -221 c-3 -8 -6 -5 -6 6 -1 11
2 17 5 13 3 -3 4 -12 1 -19z m4423 -18 c0 -5 -23 -67 -51 -137 -124 -311 -561
-1111 -853 -1563 -327 -506 -635 -927 -881 -1205 -183 -208 -532 -545 -564
-545 -5 0 -22 7 -37 15 -43 22 -59 19 -122 -24 -75 -50 -264 -151 -285 -151
-42 0 -234 273 -333 475 -112 228 -156 401 -156 614 0 128 22 298 46 355 23
53 454 507 685 720 357 330 593 525 960 795 280 205 494 346 692 456 220 122
335 163 529 190 115 16 370 19 370 5z m-4713 -132 c-3 -8 -6 -5 -6 6 -1 11 2
17 5 13 3 -3 4 -12 1 -19z m36 8 c4 -10 1 -13 -8 -9 -8 3 -12 9 -9 14 7 12 11
11 17 -5z m67 -11 c11 -13 10 -14 -4 -9 -9 3 -16 10 -16 15 0 13 6 11 20 -6z
m3526 -113 c-17 -16 -18 -16 -5 5 7 12 15 20 18 17 3 -2 -3 -12 -13 -22z m-66
-38 c0 -8 -19 -13 -24 -6 -3 5 1 9 9 9 8 0 15 -2 15 -3z m-1937 -189 c88 -23
151 -60 220 -128 85 -83 120 -157 118 -247 -2 -82 -23 -158 -66 -235 -41 -72
-135 -180 -131 -150 2 11 14 26 27 32 13 7 18 13 11 13 -7 0 -10 5 -6 12 5 7
3 8 -7 2 -8 -5 -17 -9 -21 -9 -3 0 -10 -4 -15 -9 -5 -5 -2 -6 6 -1 9 5 12 4 8
-2 -4 -6 -18 -9 -31 -8 -28 3 -62 -27 -50 -46 4 -7 3 -10 -4 -5 -5 3 -13 0
-16 -6 -3 -7 -3 -3 0 10 4 16 1 22 -11 22 -10 0 -13 -5 -9 -12 4 -7 3 -8 -5
-4 -18 11 6 36 27 29 12 -3 13 -2 5 4 -9 6 -5 22 15 62 39 80 38 176 -2 249
-31 54 -106 132 -128 132 -7 0 2 -12 20 -26 61 -48 77 -113 31 -124 l-24 -6
24 -6 c13 -4 20 -11 16 -18 -5 -8 -11 -8 -20 0 -9 8 -12 5 -10 -14 4 -37 -15
-48 -50 -30 -29 15 -29 15 -10 -6 15 -16 16 -23 6 -33 -10 -9 -11 -8 -6 6 4
10 2 17 -4 17 -6 0 -11 -4 -11 -8 0 -5 -7 -9 -16 -9 -14 0 -14 2 2 14 10 7 12
13 5 13 -7 0 -9 5 -5 12 4 7 3 8 -5 4 -6 -4 -9 -12 -6 -17 4 -5 -1 -9 -10 -9
-11 0 -15 -5 -12 -15 4 -8 2 -17 -4 -20 -5 -4 -9 -3 -8 2 5 31 -2 35 -25 14
-24 -23 -25 -23 -19 -2 3 13 1 21 -6 21 -7 0 -9 -4 -6 -10 3 -5 1 -10 -5 -10
-6 0 -9 -4 -5 -9 3 -6 -5 -15 -17 -21 -21 -10 -21 -10 -5 3 14 12 15 16 4 20
-8 3 -19 1 -25 -5 -6 -6 -12 -6 -16 1 -10 15 3 33 19 27 7 -2 16 1 19 9 3 10
0 12 -11 8 -10 -4 -14 -2 -9 5 3 6 1 14 -5 18 -8 4 -9 3 -5 -4 4 -7 3 -12 -2
-12 -5 0 -22 -12 -37 -27 -22 -22 -26 -24 -17 -7 6 12 8 24 4 28 -3 4 0 5 8 3
8 -2 12 -2 7 0 -4 3 -4 9 -1 15 4 6 -2 6 -14 -1 -14 -7 -19 -17 -16 -29 5 -14
4 -14 -4 -2 -6 8 -8 18 -6 22 3 4 0 8 -6 8 -8 0 -10 -10 -6 -27 3 -16 3 -22 0
-15 -3 6 -9 10 -14 7 -4 -3 -6 4 -3 15 3 11 0 20 -6 20 -11 0 -15 -17 -13 -60
1 -21 -1 -19 -13 10 -16 42 -18 53 -6 46 4 -3 6 7 3 22 -5 27 -6 27 -15 -8 -8
-32 -6 -68 7 -130 3 -14 19 -44 36 -68 33 -46 37 -57 18 -46 -9 5 -9 2 1 -9
16 -20 26 -23 15 -5 -5 7 8 2 27 -10 18 -13 45 -28 59 -35 14 -6 27 -14 30
-17 3 -3 16 -6 30 -7 74 -5 87 -8 87 -20 0 -9 -4 -10 -11 -3 -5 5 -21 10 -34
10 -19 0 -22 -4 -18 -22 3 -13 3 -17 0 -10 -5 10 -9 10 -20 1 -12 -10 -13 -9
-8 5 5 14 2 15 -17 8 -13 -5 -30 -7 -38 -4 -8 2 -11 0 -8 -5 4 -6 -3 -10 -16
-9 -17 1 -21 -4 -19 -19 5 -27 -7 -14 -13 13 -4 24 10 38 21 21 5 -8 13 -4 25
12 17 22 19 23 19 4 0 -16 2 -17 10 -5 9 15 -7 33 -22 24 -4 -3 -8 1 -8 8 0
10 -3 9 -9 -2 -6 -8 -8 -17 -5 -21 2 -4 -5 -7 -16 -6 -25 2 -26 12 -2 27 16
11 16 11 0 6 -10 -3 -20 -1 -23 4 -4 6 2 11 12 11 17 1 17 2 0 6 -10 3 -14 9
-10 16 5 8 2 8 -9 0 -8 -7 -19 -9 -24 -5 -5 4 0 -3 10 -16 20 -23 29 -62 15
-62 -5 0 -6 -6 -3 -14 3 -8 1 -16 -4 -20 -4 -3 -8 13 -7 35 1 22 -3 43 -8 46
-6 3 -7 1 -3 -5 3 -6 2 -13 -3 -17 -5 -3 -8 -14 -6 -25 2 -11 -1 -23 -7 -26
-7 -5 -8 -2 -4 5 5 8 0 14 -13 18 -19 5 -25 14 -23 34 1 3 -5 6 -13 6 -8 0
-12 -4 -9 -8 2 -4 0 -10 -6 -14 -6 -4 -8 -10 -6 -14 3 -4 -1 -8 -9 -8 -8 0
-12 4 -9 8 2 4 0 10 -6 14 -5 3 -10 1 -10 -5 0 -6 -5 -8 -10 -5 -6 4 -7 11 -4
17 4 7 2 8 -4 4 -18 -11 -96 68 -117 116 -10 24 -23 56 -30 71 -18 41 -18 163
0 232 49 189 211 365 376 409 71 19 210 20 282 1z m1482 -135 c-3 -5 -12 -10
-18 -10 -7 0 -6 4 3 10 19 12 23 12 15 0z m1420 -69 c81 -315 90 -601 29 -929
-102 -552 -449 -1082 -909 -1389 -108 -71 -204 -128 -252 -148 -32 -13 -34
-13 -23 0 7 8 47 41 89 72 340 256 596 527 750 796 106 184 219 470 261 662
47 216 53 619 12 810 -19 91 -19 101 0 168 14 47 22 39 43 -42z m-1476 26 c0
-9 -2 -8 -6 1 -2 6 -10 9 -15 6 -7 -4 -8 -2 -4 5 9 13 26 5 25 -12z m1235
-398 c-27 -54 -161 -274 -239 -394 -39 -60 -84 -132 -100 -160 -58 -101 -395
-605 -525 -785 -73 -102 -186 -250 -249 -329 -161 -200 -160 -199 -161 -180 0
9 57 90 126 180 257 333 552 769 914 1348 150 241 220 346 220 331 1 -12 3
-11 11 3 5 9 7 23 3 30 -5 9 -4 9 5 1 10 -9 9 -19 -5 -45z m-2834 7 c0 -2 -8
-10 -17 -17 -16 -13 -17 -12 -4 4 13 16 21 21 21 13z m266 -190 c0 -15 -5 -21
-10 -16 -5 5 -6 16 -3 24 9 23 15 19 13 -8z m-241 -96 c3 -6 -1 -7 -9 -4 -18
7 -21 14 -7 14 6 0 13 -4 16 -10z m569 -125 c24 -18 34 -5 -159 -200 -207
-208 -450 -467 -464 -492 -6 -12 -11 -32 -12 -45 0 -22 -1 -22 -9 -3 l-9 20 0
-20 c-1 -17 -3 -17 -11 -5 -9 13 -10 13 -11 0 -2 -30 -19 48 -34 153 -15 108
-20 302 -9 344 5 19 11 22 33 15 14 -4 76 -7 136 -7 180 0 304 52 448 187 40
37 74 67 77 67 3 0 14 -6 24 -14z m-1387 -631 c-3 -3 -12 -4 -19 -1 -8 3 -5 6
6 6 11 1 17 -2 13 -5z m40 -36 c-3 -8 -6 -5 -6 6 -1 11 2 17 5 13 3 -3 4 -12
1 -19z m30 -8 c-2 -23 -10 -17 -14 11 -2 11 1 18 6 14 6 -3 9 -14 8 -25z m40
-32 c-3 -8 -6 -5 -6 6 -1 11 2 17 5 13 3 -3 4 -12 1 -19z m26 8 c3 -8 -2 -20
-11 -27 -14 -11 -15 -11 -5 0 6 7 9 20 6 27 -3 8 -3 14 0 14 3 0 7 -6 10 -14z
m194 -88 c-3 -8 -6 -5 -6 6 -1 11 2 17 5 13 3 -3 4 -12 1 -19z m410 -10 c-3
-7 -5 -2 -5 12 0 14 2 19 5 13 2 -7 2 -19 0 -25z m-20 0 c-3 -8 -6 -5 -6 6 -1
11 2 17 5 13 3 -3 4 -12 1 -19z m-152 -28 c3 -5 1 -10 -4 -10 -6 0 -11 5 -11
10 0 6 2 10 4 10 3 0 8 -4 11 -10z m162 -12 c-3 -8 -6 -5 -6 6 -1 11 2 17 5
13 3 -3 4 -12 1 -19z m-572 -251 c100 -68 310 -159 451 -195 59 -16 110 -34
112 -40 5 -17 -24 -15 -110 7 -175 45 -371 135 -458 210 -35 30 -32 43 5 18z
m2055 -513 c-6 -14 -10 -101 -10 -194 0 -145 2 -170 16 -178 13 -7 14 -13 5
-30 -20 -37 -450 -370 -534 -414 l-39 -19 -76 57 c-42 32 -110 89 -149 127
l-73 70 73 42 c39 23 95 57 124 75 l52 32 27 -21 c15 -11 32 -21 39 -21 35 0
337 269 465 414 41 47 78 85 82 86 4 0 3 -12 -2 -26z"/>
<path d="M2399 2588 c-6 -21 -5 -37 1 -33 5 3 13 -3 19 -12 9 -16 10 -16 8 4
0 12 -6 21 -12 20 -5 -1 -9 4 -7 11 2 10 -6 19 -9 10z"/>
<path d="M2523 2525 c-3 -9 -3 -18 -1 -21 3 -3 8 4 11 16 6 23 -1 27 -10 5z"/>
<path d="M2606 2483 c-6 -14 -5 -15 5 -6 7 7 10 15 7 18 -3 3 -9 -2 -12 -12z"/>
<path d="M1775 4880 c-13 -5 -14 -9 -5 -9 8 0 24 4 35 9 13 5 14 9 5 9 -8 0
-24 -4 -35 -9z"/>
<path d="M1685 4680 c4 -6 11 -8 16 -5 14 9 11 15 -7 15 -8 0 -12 -5 -9 -10z"/>
<path d="M4975 4028 c-132 -123 -213 -275 -285 -533 -12 -44 -28 -90 -36 -103
-21 -32 0 -38 78 -18 35 8 117 21 183 27 66 6 145 14 175 17 l55 7 19 55 c15
41 20 81 20 155 -1 116 -18 190 -74 320 -21 49 -40 99 -42 109 -6 35 -26 28
-93 -36z m-61 -170 c24 -33 21 -123 -4 -148 -29 -29 -67 -36 -90 -15 -26 23
-25 60 1 110 41 78 66 92 93 53z m181 -381 c-10 -25 -22 -37 -35 -37 -19 0
-20 2 -6 28 7 15 17 43 21 62 4 19 13 46 19 60 10 23 11 21 14 -25 2 -30 -3
-66 -13 -88z"/>
<path d="M3985 3030 c-75 -21 -90 -27 -93 -43 -2 -9 14 -29 40 -47 62 -46 84
-53 116 -36 35 18 92 75 92 91 0 39 -77 56 -155 35z m65 -15 c0 -2 -13 -11
-29 -20 -23 -11 -36 -13 -58 -4 -22 8 -24 12 -13 19 15 10 100 14 100 5z"/>
<path d="M4520 2761 c0 -6 5 -13 10 -16 20 -13 9 -38 -42 -91 -61 -64 -191
-133 -298 -159 -209 -49 -426 -15 -569 90 -61 45 -111 114 -111 154 0 17 -5
22 -22 19 -38 -5 -33 -40 17 -111 111 -159 264 -229 500 -230 152 0 266 28
385 96 103 58 229 201 214 241 -7 17 -84 24 -84 7z"/>
<path d="M2786 3941 c-4 -7 -5 -15 -2 -18 9 -9 19 4 14 18 -4 11 -6 11 -12 0z"/>
<path d="M3116 3852 c-3 -5 1 -9 9 -9 8 0 12 4 9 9 -3 4 -7 8 -9 8 -2 0 -6 -4
-9 -8z"/>
<path d="M3076 3791 c-4 -5 -2 -12 3 -15 5 -4 12 -2 15 3 4 5 2 12 -3 15 -5 4
-12 2 -15 -3z"/>
<path d="M2885 3730 c-3 -5 -1 -10 4 -10 6 0 11 5 11 10 0 6 -2 10 -4 10 -3 0
-8 -4 -11 -10z"/>
<path d="M2850 3719 c0 -5 5 -7 10 -4 6 3 10 8 10 11 0 2 -4 4 -10 4 -5 0 -10
-5 -10 -11z"/>
<path d="M2661 3444 c0 -11 3 -14 6 -6 3 7 2 16 -1 19 -3 4 -6 -2 -5 -13z"/>
<path d="M2723 3443 c0 -9 4 -10 14 -2 7 6 13 12 13 14 0 1 -6 2 -13 2 -8 0
-14 -6 -14 -14z"/>
<path d="M2895 3440 c-3 -5 -1 -10 4 -10 6 0 11 5 11 10 0 6 -2 10 -4 10 -3 0
-8 -4 -11 -10z"/>
</g>
</svg>
